<svg width="26" height="23" viewBox="0 0 26 23" fill="none" xmlns="http://www.w3.org/2000/svg">
<rect width="26" height="23" fill="#E5E5E5"/>
<g id="Home" clip-path="url(#clip0_0_1)">
<rect width="1600" height="6414.17" transform="translate(-1301 -70.5833)" fill="white"/>
<g id="Group 309">
<g id="Rectangle 1" filter="url(#filter0_d_0_1)">
<rect x="-1303" y="-51" width="1600" height="108.333" fill="white"/>
</g>
<g id="Nav top">
<g id="Frame" clip-path="url(#clip1_0_1)">
<g id="Group">
<path id="Vector" d="M0.833252 1.13353C1.01533 0.724807 1.3237 0.576495 1.76666 0.582447C3.11759 0.601792 4.46901 0.588895 5.82042 0.589887C6.35198 0.589887 6.58742 0.774906 6.70978 1.30814C6.87816 2.04524 7.03724 2.78481 7.20806 3.56011C7.30498 3.56011 7.40727 3.56011 7.51006 3.56011C13.3225 3.56011 19.1349 3.56705 24.9468 3.5492C25.542 3.54721 25.9845 3.96834 25.7848 4.66576C24.8279 8.00651 23.893 11.3542 22.9498 14.6989C22.7848 15.2842 22.5783 15.4395 21.9694 15.4395C17.6631 15.4395 13.3567 15.4395 9.05041 15.4395C8.60598 15.4395 8.32356 15.6077 8.21 15.936C8.05092 16.3968 8.3495 16.8616 8.84582 16.9197C8.94224 16.9311 9.04111 16.9261 9.13852 16.9261C13.461 16.9266 17.784 16.9261 22.1064 16.9266C22.5773 16.9266 22.8979 17.2113 22.9121 17.6354C22.9263 18.061 22.6174 18.3988 22.195 18.4077C21.8372 18.4152 21.4794 18.4092 21.1143 18.4261C21.709 18.5729 22.1965 18.8819 22.5362 19.3948C22.8827 19.9181 22.9919 20.5 22.8607 21.119C22.637 22.1751 21.6596 22.9221 20.5906 22.8611C19.5289 22.8006 18.6674 21.9806 18.5338 20.8948C18.4237 20.0015 18.874 18.8031 20.3625 18.4211C17.132 18.4211 13.9456 18.4211 10.7587 18.4211C11.3421 18.5709 11.8291 18.873 12.1693 19.3809C12.5134 19.8943 12.6269 20.4633 12.5124 21.0779C12.32 22.1091 11.3773 22.8814 10.3255 22.8651C9.25109 22.8487 8.35341 22.0496 8.18748 20.9618C8.01079 19.8031 8.66667 18.8681 10.0127 18.4102C9.64854 18.4102 9.33186 18.4107 9.01468 18.4102C7.88352 18.4087 7.02892 17.7654 6.75579 16.7098C6.50078 15.7247 6.96235 14.7297 7.92611 14.1841C7.95352 14.1687 7.97848 14.1488 8.01177 14.126C7.13073 10.1092 6.25116 6.0968 5.36865 2.07301C4.59627 2.07301 3.84004 2.07301 3.08382 2.07301C2.6526 2.07301 2.21991 2.05218 1.78967 2.07897C1.34083 2.10625 1.01876 1.95297 0.833252 1.52937C0.833252 1.39742 0.833252 1.26548 0.833252 1.13353ZM24.1343 5.05216C18.5906 5.05216 13.0733 5.05216 7.53356 5.05216C8.18553 8.02486 8.83407 10.9842 9.48261 13.941C13.5427 13.941 17.5847 13.941 21.6277 13.941C22.4633 10.9787 23.2949 8.03032 24.1343 5.05216ZM11.09 20.6587C11.1042 20.2693 10.7709 19.9127 10.3793 19.8983C9.99508 19.8839 9.64316 20.2217 9.62896 20.6185C9.61477 21.0079 9.94809 21.3646 10.3397 21.379C10.7239 21.3933 11.0753 21.056 11.09 20.6587ZM20.7521 19.8998C20.3703 19.874 20.013 20.2019 19.9866 20.6022C19.9611 20.9891 20.2846 21.3512 20.6796 21.378C21.0614 21.4038 21.4187 21.0759 21.4452 20.6756C21.4706 20.2882 21.1471 19.9266 20.7521 19.8998Z" fill="#2C2C2C"/>
</g>
</g>
</g>
</g>
</g>
<defs>
<filter id="filter0_d_0_1" x="-1311.33" y="-57.6667" width="1616.67" height="125" filterUnits="userSpaceOnUse" color-interpolation-filters="sRGB">
<feFlood flood-opacity="0" result="BackgroundImageFix"/>
<feColorMatrix in="SourceAlpha" type="matrix" values="0 0 0 0 0 0 0 0 0 0 0 0 0 0 0 0 0 0 127 0" result="hardAlpha"/>
<feOffset dy="1.66667"/>
<feGaussianBlur stdDeviation="4.16667"/>
<feComposite in2="hardAlpha" operator="out"/>
<feColorMatrix type="matrix" values="0 0 0 0 0 0 0 0 0 0 0 0 0 0 0 0 0 0 0.15 0"/>
<feBlend mode="normal" in2="BackgroundImageFix" result="effect1_dropShadow_0_1"/>
<feBlend mode="normal" in="SourceGraphic" in2="effect1_dropShadow_0_1" result="shape"/>
</filter>
<clipPath id="clip0_0_1">
<rect width="1600" height="6414.17" fill="white" transform="translate(-1301 -70.5833)"/>
</clipPath>
<clipPath id="clip1_0_1">
<rect width="25" height="22.2826" fill="white" transform="translate(0.833252 0.583252)"/>
</clipPath>
</defs>
</svg>
